<?xml version="1.0" standalone="no"?><!DOCTYPE svg PUBLIC "-//W3C//DTD SVG 1.1//EN" "http://www.w3.org/Graphics/SVG/1.1/DTD/svg11.dtd"><svg t="1723625133285" class="icon" viewBox="0 0 1024 1024" version="1.1" xmlns="http://www.w3.org/2000/svg" p-id="15591" width="16" height="16" xmlns:xlink="http://www.w3.org/1999/xlink"><path d="M256.906624 818.261313A767.977098 767.977098 0 0 0 1023.969464 54.855507a54.855507 54.855507 0 0 0-54.855507-54.855507 54.855507 54.855507 0 0 0-54.855507 54.855507 658.266084 658.266084 0 0 1-657.351826 653.694792H186.508724l114.099454-114.099455a54.855507 54.855507 0 0 0-77.711968-77.529116L16.090949 723.544137a54.855507 54.855507 0 0 0 0 77.529117l206.805261 206.805261a54.855507 54.855507 0 0 0 77.711968-77.529116l-112.453789-112.45379h64.729498z" fill="#333333" p-id="15592"></path></svg>