<svg t="1724210941403"
    class="icon" viewBox="0 0 1024 1024" version="1.1" xmlns="http://www.w3.org/2000/svg" p-id="8929"
    xmlns:xlink="http://www.w3.org/1999/xlink" width="16" height="16">
    <path
        d="M512 960c-247.424 0-448-200.576-448-448 0-247.424 200.576-448 448-448 247.424 0 448 200.576 448 448C960 759.424 759.424 960 512 960L512 960zM512 163.584C319.552 163.584 163.584 319.552 163.584 512c0 192.448 155.968 348.48 348.416 348.48 192.448 0 348.416-156.032 348.416-348.416C860.416 319.68 704.448 163.584 512 163.584L512 163.584zM776 400.576l-316.8 316.8c-9.728 9.728-25.472 9.728-35.2 0l-176-176c-9.728-9.728-9.728-25.472 0-35.2l35.2-35.2c9.728-9.728 25.472-9.728 35.2 0L441.6 594.176l264-264c9.728-9.728 25.472-9.728 35.2 0l35.2 35.2C785.728 375.104 785.728 390.848 776 400.576L776 400.576z"
        p-id="8930"></path>
</svg>